<?xml version="1.0" encoding="utf-8"?>
<!-- Generator: Adobe Illustrator 24.1.1, SVG Export Plug-In . SVG Version: 6.00 Build 0)  -->
<svg version="1.1" id="Layer_1" xmlns="http://www.w3.org/2000/svg" xmlns:xlink="http://www.w3.org/1999/xlink" x="0px" y="0px"
	 viewBox="0 0 512 512" style="enable-background:new 0 0 512 512;" xml:space="preserve">
<style type="text/css">
	.st0{fill:#E0E0D1;}
	.st1{fill:#BAB9AE;}
	.st2{fill:#E0995E;}
	.st3{fill:#BA8152;}
	.st4{fill:#C75C5C;}
	.st5{fill:#F5CF87;}
	.st6{fill:#76C2AF;}
	.st7{fill:#FFFFFF;}
	.st8{fill:#4F5D73;}
</style>
<g id="XMLID_1_">
	<path id="XMLID_3_" class="st0" d="M256,0c141,0,256,115,256,256S397,512,256,512S0,397,0,256S115,0,256,0"/>
	<path id="XMLID_7_" class="st1" d="M193.8,304c-17.3,0-32.3,14.2-32.3,32.3c0,3.2,0,5.5,0.8,7.9c3.9-13.4,15.8-23.6,30.7-23.6
		c15,0,27.6,10.2,30.7,23.6c0.8-2.4,0.8-5.5,0.8-7.9C225.3,318.2,211.1,304,193.8,304 M433.2,263.9c-3.9,94.5-78,163.1-173.3,168.6
		c-2.4,0-3.9,0-6.3,0c-58.3,0-121.3-37.8-130-67.7c-0.8,2.4-0.8,4.7-0.8,7.1C119.7,402.5,189,449,254.4,449c2.4,0,3.9,0,6.3,0
		c98.5-5.5,173.3-78.8,173.3-176.4C433.2,269.4,433.2,267,433.2,263.9 M88.2,224.5c-9.5,38.6,42.5,23.6,45.7,70.9c0,1.6,0,3.2,0,4.7
		c0-6.3,0-12.6,0-20.5C130.8,240.2,95.3,243.4,88.2,224.5"/>
	<path id="XMLID_10_" class="st2" d="M257.6,80.3c-67.7,0-144.1,43.3-168.6,125.2c-12.6,41.7,41.7,24.4,44.9,73.3
		c3.2,39.4-8.7,52.8-11,77.2c-3.2,32.3,70.9,80.3,137.8,77.2c98.5-5.5,173.3-78.8,173.3-176.4C433.2,157.5,356,80.3,257.6,80.3
		 M193.8,367.9c-17.3,0-32.3-14.2-32.3-32.3c0-17.3,14.2-32.3,32.3-32.3s32.3,14.2,32.3,32.3C225.3,353.7,211.1,367.9,193.8,367.9"
		/>
	<path id="XMLID_11_" class="st3" d="M167,167.8c-17.3,0-32.3,14.2-32.3,32.3s14.2,32.3,32.3,32.3c17.3,0,32.3-14.2,32.3-32.3
		S185.1,167.8,167,167.8"/>
	<path id="XMLID_12_" class="st3" d="M257.6,124.5c-17.3,0-32.3,14.2-32.3,32.3c0,17.3,14.2,32.3,32.3,32.3
		c17.3,0,32.3-14.2,32.3-32.3C289.9,139.4,274.9,124.5,257.6,124.5"/>
	<path id="XMLID_13_" class="st3" d="M347.4,165.4c-17.3,0-32.3,14.2-32.3,32.3c0,17.3,14.2,32.3,32.3,32.3
		c18.1,0,32.3-14.2,32.3-32.3C378.9,179.6,364.7,165.4,347.4,165.4"/>
	<path id="XMLID_14_" class="st3" d="M371,266.2c-17.3,0-32.3,14.2-32.3,32.3c0,17.3,14.2,32.3,32.3,32.3
		c17.3,0,32.3-14.2,32.3-32.3S389.1,266.2,371,266.2"/>
	<path id="XMLID_15_" class="st3" d="M298.5,345c-17.3,0-32.3,14.2-32.3,32.3s14.2,32.3,32.3,32.3s32.3-14.2,32.3-32.3
		S315.9,345,298.5,345"/>
	<circle id="XMLID_16_" class="st4" cx="167" cy="184.3" r="32.3"/>
	<circle id="XMLID_17_" class="st5" cx="257.6" cy="141" r="32.3"/>
	<circle id="XMLID_18_" class="st6" cx="347.4" cy="182" r="32.3"/>
	<circle id="XMLID_19_" class="st7" cx="371" cy="282.8" r="32.3"/>
	<circle id="XMLID_20_" class="st8" cx="298.5" cy="360.8" r="32.3"/>
</g>
</svg>
