<svg class="svg-icon" style="width: 1em; height: 1em;vertical-align: middle;fill: currentColor;overflow: hidden;" viewBox="0 0 1024 1024" version="1.1" xmlns="http://www.w3.org/2000/svg"><path d="M214.4 539.2v134.8h147.6v-134.8H214.4z m114.8 108H247.2v-81.6h81.6v81.6zM512 685.2V820h147.6v-134.8H512z m114.8 108.4h-81.6V712h81.6v81.6z" fill="#71CDE1" /><path d="M512 392.8v134.8h440.4V392.8H512z m114.8 108h-81.6v-81.6h81.6v81.6z m148.8 0h-81.6v-81.6h81.6v81.6z m148.8 0h-81.6v-81.6h81.6v81.6z" fill="#F68F6F" /><path d="M962 934h-900C28 934 0 906 0 872V314h1024V872c0 34-28 62-62 62zM13.6 327.6V872c0 26.8 21.6 48.4 48.4 48.4h900c26.8 0 48.4-21.6 48.4-48.4V327.6H13.6z" fill="#4A555F" /><path d="M962 1013.6h-900c-34.4 0-62-28-62-62V872h13.6c0 26.8 21.6 48.4 48.4 48.4h900c26.8 0 48.4-21.6 48.4-48.4h13.6v79.6c0 34.4-28 62-62 62zM13.6 910.8v40.8c0 26.8 21.6 48.4 48.4 48.4h900c26.8 0 48.4-21.6 48.4-48.4v-40.8c-11.2 14.4-28.8 23.2-48.4 23.2h-900c-19.6 0-37.2-9.2-48.4-23.2z" fill="#4A555F" /><path d="M62 984.4c-18 0-32.8-14.8-32.8-32.8v-8.8c10 4.8 21.2 7.2 32.8 7.2h900c11.6 0 22.8-2.4 32.8-7.2v8.8c0 18-14.8 32.8-32.8 32.8h-900z" fill="#F68F6F" /><path d="M1024 327.6H0V157.2c0-34.4 28-62 62-62h79.2v58.8c0 14.4 11.6 26 26 26s26-11.6 26-26V95.2h177.6v58.8c0 14.4 11.6 26 26 26s26-11.6 26-26V95.2h177.6v58.8c0 14.4 11.6 26 26 26s26-11.6 26-26V95.2h177.6v58.8c0 14.4 11.6 26 26 26s26-11.6 26-26V95.2h79.2c34.4 0 62 28 62 62v170.4zM13.6 314h996.8V157.2c0-26.8-21.6-48.4-48.4-48.4h-65.6v45.2c0 22-17.6 39.6-39.6 39.6s-39.6-18-39.6-39.6V108.8h-150.4v45.2c0 22-17.6 39.6-39.6 39.6s-39.6-18-39.6-39.6V108.8h-150.4v45.2c0 22-17.6 39.6-39.6 39.6s-39.6-18-39.6-39.6V108.8H207.2v45.2c0 22-17.6 39.6-39.6 39.6S128 175.6 128 154V108.8H62c-26.8 0-48.4 21.6-48.4 48.4v156.8z" fill="#4A555F" /><path d="M29.2 298.4V157.2c0-18 14.8-32.8 32.8-32.8H112v29.6c0 30.8 24.8 55.6 55.6 55.6 30.4 0 55.6-24.8 55.6-55.6v-29.6h118.8v29.6c0 30.8 24.8 55.6 55.6 55.6 30.4 0 55.6-24.8 55.6-55.6v-29.6H572v29.6c0 30.8 24.8 55.6 55.6 55.6 30.4 0 55.6-24.8 55.6-55.6v-29.6h118.8v29.6c0 30.8 24.8 55.6 55.6 55.6 30.4 0 55.6-24.8 55.6-55.6v-29.6h50c18 0 32.8 14.8 32.8 32.8v140.8H29.2z" fill="#F68F6F" /><path d="M167.2 194c-22 0-39.6-17.6-39.6-39.6V50c0-22 17.6-39.6 39.6-39.6s39.6 17.6 39.6 39.6v104.4c0.4 21.6-17.6 39.6-39.6 39.6z m0-170c-14.4 0-26 11.6-26 26v104.4c0 14.4 11.6 26 26 26s26-11.6 26-26V50c0.4-14.4-11.6-26-26-26z" fill="#4A555F" /><path d="M167.2 164.4c-5.6 0-10.4-4.8-10.4-10.4v-104c0-5.6 4.8-10.4 10.4-10.4s10.4 4.8 10.4 10.4v104.4c0 5.6-4.4 10-10.4 10z" fill="#E0E0E0" /><path d="M397.2 194c-22 0-39.6-17.6-39.6-39.6V50c0-22 17.6-39.6 39.6-39.6s39.6 17.6 39.6 39.6v104.4c0 21.6-17.6 39.6-39.6 39.6z m0-170c-14.4 0-26 11.6-26 26v104.4c0 14.4 11.6 26 26 26s26-11.6 26-26V50c0-14.4-11.6-26-26-26z" fill="#4A555F" /><path d="M397.2 164.4c-5.6 0-10.4-4.8-10.4-10.4v-104c0-5.6 4.8-10.4 10.4-10.4 5.6 0 10.4 4.8 10.4 10.4v104.4c0 5.6-4.8 10-10.4 10z" fill="#E0E0E0" /><path d="M626.8 194c-22 0-39.6-17.6-39.6-39.6V50c0-22 17.6-39.6 39.6-39.6s39.6 17.6 39.6 39.6v104.4c0 21.6-17.6 39.6-39.6 39.6z m0-170c-14.4 0-26 11.6-26 26v104.4c0 14.4 11.6 26 26 26s26-11.6 26-26V50c0-14.4-11.6-26-26-26z" fill="#4A555F" /><path d="M626.8 164.4c-5.6 0-10.4-4.8-10.4-10.4v-104c0-5.6 4.8-10.4 10.4-10.4 5.6 0 10.4 4.8 10.4 10.4v104.4c0 5.6-4.8 10-10.4 10z" fill="#E0E0E0" /><path d="M856.8 194c-22 0-39.6-17.6-39.6-39.6V50c0-22 17.6-39.6 39.6-39.6s39.6 17.6 39.6 39.6v104.4c0 21.6-18 39.6-39.6 39.6z m0-170c-14.4 0-26 11.6-26 26v104.4c0 14.4 11.6 26 26 26s26-11.6 26-26V50c0-14.4-11.6-26-26-26z" fill="#4A555F" /><path d="M856.8 164.4c-5.6 0-10.4-4.8-10.4-10.4v-104c0-5.6 4.8-10.4 10.4-10.4 5.6 0 10.4 4.8 10.4 10.4v104.4c-0.4 5.6-4.8 10-10.4 10z" fill="#E0E0E0" /><path d="M335.6 507.6H240.4v-95.2h95.2v95.2z m-81.6-13.6h68v-68h-68v68zM484.8 507.6H389.6v-95.2h95.2v95.2z m-82-13.6h68v-68h-68v68zM633.6 507.6h-95.2v-95.2h95.2v95.2z m-81.6-13.6h68v-68h-68v68zM782.4 507.6h-95.2v-95.2h95.2v95.2z m-81.6-13.6h68v-68h-68v68zM931.2 507.6H836v-95.2h95.2v95.2z m-81.6-13.6h68v-68h-68v68zM335.6 654H240.4v-95.2h95.2v95.2z m-81.6-13.6h68v-68h-68v68zM484.8 654H389.6v-95.2h95.2v95.2z m-82-13.6h68v-68h-68v68zM633.6 654h-95.2v-95.2h95.2v95.2z m-81.6-13.6h68v-68h-68v68zM782.4 654h-95.2v-95.2h95.2v95.2z m-81.6-13.6h68v-68h-68v68zM931.2 654H836v-95.2h95.2v95.2z m-81.6-13.6h68v-68h-68v68zM484.8 800.4H389.6v-95.2h95.2v95.2z m-82-13.6h68v-68h-68v68z" fill="#4A555F" /><path d="M191.6 654H96.4v-95.2h95.2v95.2z m-81.6-13.6h68v-68h-68v68z" fill="#4A555F" /><path d="M633.6 800.4h-95.2v-95.2h95.2v95.2z m-81.6-13.6h68v-68h-68v68z" fill="#4A555F" /><path d="M782.4 800.4h-95.2v-95.2h95.2v95.2z m-81.6-13.6h68v-68h-68v68z" fill="#4A555F" /><path d="M70.4 685.2V820h147.6v-134.8H70.4z m114.4 108.4H103.2V712h81.6v81.6z" fill="#FFD552" /><path d="M214.4 685.2V820h147.6v-134.8H214.4z m114.8 108.4H247.2V712h81.6v81.6z" fill="#FFD552" /><path d="M335.6 800.4H240.4v-95.2h95.2v95.2z m-81.6-13.6h68v-68h-68v68z" fill="#4A555F" /><path d="M191.6 800.4H96.4v-95.2h95.2v95.2z m-81.6-13.6h68v-68h-68v68z" fill="#4A555F" /></svg>