<!DOCTYPE svg PUBLIC "-//W3C//DTD SVG 1.1//EN" "http://www.w3.org/Graphics/SVG/1.1/DTD/svg11.dtd">
<!-- Uploaded to: SVG Repo, www.svgrepo.com, Transformed by: SVG Repo Mixer Tools -->
<svg fill="#db1a1a" height="800px" width="800px" version="1.1" id="Capa_1" xmlns="http://www.w3.org/2000/svg" xmlns:xlink="http://www.w3.org/1999/xlink" viewBox="0 0 477.778 477.778" xml:space="preserve" stroke="#db1a1a">
<g id="SVGRepo_bgCarrier" stroke-width="0"/>
<g id="SVGRepo_tracerCarrier" stroke-linecap="round" stroke-linejoin="round"/>
<g id="SVGRepo_iconCarrier"> <g> <path d="M402.965,0H265.932c-17.474,0-31.689,14.215-31.689,31.681v24.059h31.704l-0.014-23.889l136.863-0.17v239.059H362.98 v31.852h39.985c17.466,0,31.681-14.215,31.681-31.681V31.681C434.647,14.215,420.431,0,402.965,0z"/> <path d="M307.41,79.63H170.376c-17.474,0-31.689,14.215-31.689,31.681v39.985h31.712l-0.022-39.815l136.863-0.17V350.37h-39.815 v31.852h39.985c17.466,0,31.681-14.215,31.681-31.681v-239.23C339.091,93.845,324.875,79.63,307.41,79.63z"/> <path d="M211.854,175.185H74.821c-17.474,0-31.689,14.216-31.689,31.681v239.23c0,17.466,14.215,31.681,31.689,31.681h137.033 c17.466,0,31.682-14.215,31.682-31.681v-239.23C243.535,189.401,229.32,175.185,211.854,175.185z M211.684,445.926l-136.7,0.17 l-0.162-239.059l136.863-0.17V445.926z"/> <path d="M99.541,334.445h87.593c4.402,0,7.963-3.561,7.963-7.963c0-4.402-3.561-7.963-7.963-7.963H99.541 c-4.402,0-7.963,3.561-7.963,7.963C91.578,330.884,95.139,334.445,99.541,334.445z"/> <path d="M143.337,285.329c10.987,0,19.899-8.912,19.899-19.899c0-10.995-8.912-19.907-19.899-19.907 c-10.995,0-19.908,8.912-19.908,19.907C123.43,276.417,132.342,285.329,143.337,285.329z"/> <path d="M177.522,348.768c-10.995,0-19.907,8.912-19.907,19.907c0,10.987,8.912,19.9,19.907,19.9 c10.987,0,19.899-8.912,19.899-19.9C197.422,357.68,188.51,348.768,177.522,348.768z"/> <path d="M110.156,436.345c10.987,0,19.899-8.911,19.899-19.9c0-10.995-8.912-19.907-19.899-19.907 c-10.995,0-19.907,8.912-19.907,19.907C90.248,427.434,99.16,436.345,110.156,436.345z"/> </g> </g>
</svg>