<?xml version="1.0" encoding="UTF-8"?> <svg xmlns="http://www.w3.org/2000/svg" id="Слой_1" data-name="Слой 1" viewBox="0 0 625.02 700.52"><defs><style>.cls-1{stroke:#fff;stroke-miterlimit:10;}.cls-2{fill:#fff;}</style></defs><path class="cls-1" d="M757.5,849.5s12-68-25-93c-24.3-16.42-121-50-134-62s-51.73-80.11-61-122c-21-101,1-99,1-99s7-20,18-9c7,21,9,49,9,49s20.65,94,73,122c54.57,29.24,82,41,82,41s-63-28-82-50-27-53-3-37,32,34,56,40,74,29,84,43,38,52,31,83,20,133,20,133Z" transform="translate(-527.92 -189)"></path><path class="cls-1" d="M923.36,849.46s-12-68,25-93c24.29-16.42,121-50,134-62s51.72-80.11,61-122c21-101-1-99-1-99s-7-20-18-9c-7,21-9,49-9,49s-20.66,93.95-73,122c-54.58,29.24-82,41-82,41s63-28,82-50,27-53,3-37-32,34-56,40-74,29-84,43-38,52-31,83-20,133-20,133Z" transform="translate(-527.92 -189)"></path><path d="M837.24,724.75c-49.54-85.9-121.8-134.06-220.89-147.23l-8-1.06,3.88-7c26.18-47.49,50.6-89.91,84.33-128.14C735.68,397,782.59,364.51,840,342l2-.79,2,.79c65.89,25.91,118.43,58,156.17,95.3,38.78,38.37,63.06,83.37,72.16,133.77l1,5.72-5.76.72c-101.7,12.75-173.92,60.87-220.78,147.1l-4.69,8.63Z" transform="translate(-527.92 -189)"></path><path class="cls-2" d="M842,347.14c129.64,51,206.87,125,224.93,224.93C960.37,585.43,887.64,638,842,722c-47.84-83-120.28-136-224.93-149.93C665.78,483.71,716.41,396.33,842,347.14m0-11.82-4,1.58c-58.24,22.81-105.85,55.76-145.53,100.74-34.11,38.66-58.68,81.35-85,129.12l-7.77,14.09,16,2.12c97.29,12.93,168.22,60.21,216.85,144.53l9.82,17,9.38-17.26c46-84.56,116.81-131.75,216.63-144.27l11.52-1.44-2.07-11.43c-9.31-51.53-34.11-97.52-73.71-136.7-38.26-37.86-91.43-70.33-158-96.51l-4-1.58Z" transform="translate(-527.92 -189)"></path><circle cx="314.08" cy="118" r="112.5"></circle><path class="cls-2" d="M842,200A107,107,0,1,1,735,307,107,107,0,0,1,842,200m0-11a118,118,0,1,0,83.44,34.56A117.22,117.22,0,0,0,842,189Z" transform="translate(-527.92 -189)"></path></svg> 