<svg class="svg-icon" style="width: 1em; height: 1em;vertical-align: middle;fill: currentColor;overflow: hidden;" viewBox="0 0 1024 1024" version="1.1" xmlns="http://www.w3.org/2000/svg"><path d="M449.1 594.1c5.1 14 13.2 27.4 21 39 12.7 18.7 27.3 36.5 41.9 54 14.6-17.5 29.2-35.3 41.9-54 7.9-11.6 15.9-25 21-39-17.3 6.2-39.2 9.9-63 9.9-23.6 0.1-45.4-3.7-62.8-9.9z m224.4-64.7c1.2-78.6 1.5-197.7-11.5-266.8-15.5-81.8-57.6-133.7-149.1-133.6-91.5-0.2-133.9 51.8-149.8 133.6-13.1 67.5-13.4 187.2-12.6 266.9 18.7-8.8 36.9-16.6 52.6-23.1 4.3-1.8 57.9-22.1 74.8-28.6-31.9-23.1-62.1-82.1-69.3-117.7-3.8 5-6.7 26-7.7 38.3-8.4-24.8-6.5-44.9-3.5-60.1 8.5-44 30.3-84.6 63.9-110.3 38.1 57.3 89.3 70.1 138.7 100.6-2.9-7.1-4.5-10.7-4.8-11-40.9-50.2-66.7-63.5-83.2-83.6 61.1 23.1 97.1 53.6 111.7 111 5.9 23.1 6.9 51.1 3.4 83.5-2.2-27.4-7.6-55.9-12.7-65.9-10.8 42.6-37.8 96.5-64.2 115.3 26.8 10.7 68.9 27.5 72.8 29.1 15.1 6.4 32.6 13.9 50.5 22.4z" fill="#4DA476" /><path d="M265.1 614.6c16.2-22.6 57.5-45.6 100-65.4-22.3 63.7-15.6 146.4 8.2 206.5-19 19.8-5.1 53.2 22.7 53.2 17.4 0 31.4-14.1 31.4-31.4 0-18.3-15.5-32.7-33.8-31.4-23-59-28.9-144.4-1.3-204.5 1.1-2.1 2.1-4.1 3.1-6 10.7-4.6 21-9 30.7-13 2.8-1.2 4 2 3.2 3.8-31.2 64.1 19.9 122.2 73.5 186.9L490.2 751l21.8-26.5 8-9.7c54.1-65.3 106.2-123.8 74.8-188.4-0.9-1.8 0.3-4.9 3.2-3.8 18.8 7.8 40.1 16.8 61.2 26.6 4 20.5 2.1 42.8-3 64.9-30.5-1.9-58.8 16.2-69.2 51.4-14 47.7-61.1 122.4 1.4 136.4 14.4 3.2 19.3-18.6 4.9-21.8-14.1-3.2-15.7-14.6-12.4-29.5 4.8-21.5 20.3-54.3 27.5-78.8 17.1-58 96.9-40 87.5 19.7-4 25.5-4.1 61.7-8.9 82.9-3.4 14.9-9.6 24.5-23.8 21.4-14.4-3.2-19.3 18.6-4.9 21.8 62.6 14.1 52-73.9 59.7-122.7 5.7-35.9-11.8-64.3-40.1-75.8 4.5-19.7 6.6-39.4 5.2-58.2 33.2 16.9 62.6 35.4 75.7 53.6 23 32.1 33.8 217.6 40.1 281.4H224.6c6.2-60.3 18-249.9 40.5-281.3z" fill="#4DA476" /></svg>